<?xml version="1.0" standalone="no"?>
<!DOCTYPE svg PUBLIC "-//W3C//DTD SVG 20010904//EN"
 "http://www.w3.org/TR/2001/REC-SVG-20010904/DTD/svg10.dtd">
<svg version="1.0" xmlns="http://www.w3.org/2000/svg"
 width="460.000000pt" height="542.000000pt" viewBox="0 0 460.000000 542.000000"
 preserveAspectRatio="xMidYMid meet">
<metadata>
Created by potrace 1.16, written by Peter Selinger 2001-2019
</metadata>
<g transform="translate(0.000000,542.000000) scale(0.100000,-0.100000)"
fill="#000000" stroke="none">
<path d="M1954 5210 c-18 -4 -46 -5 -63 -4 -22 3 -31 0 -31 -11 0 -9 -6 -12
-16 -8 -10 4 -20 -1 -26 -11 -5 -9 -13 -14 -18 -11 -5 3 -17 -1 -27 -9 -10 -8
-36 -30 -58 -47 -22 -18 -33 -30 -25 -27 82 28 122 39 125 36 6 -6 -230 -84
-300 -99 -50 -11 -55 -14 -35 -20 14 -4 39 -7 57 -8 l32 -1 -54 -51 c-29 -27
-56 -62 -60 -77 -3 -15 -30 -70 -60 -122 -29 -52 -56 -105 -60 -117 -12 -42
10 -23 42 35 17 32 50 78 72 102 l41 45 -18 -40 c-9 -22 -34 -71 -55 -108 -22
-38 -37 -70 -35 -72 9 -9 28 15 63 80 38 71 89 143 142 202 43 48 141 130 163
136 18 4 18 3 7 -17 -6 -12 -34 -52 -62 -90 -27 -37 -49 -71 -48 -74 1 -4 -4
-14 -11 -22 -22 -25 -107 -179 -123 -224 -8 -22 -21 -60 -29 -84 l-13 -42 27
14 c15 8 36 25 47 37 11 13 13 18 5 12 -48 -43 -41 27 15 138 83 167 236 361
318 405 44 24 42 10 -2 -19 -62 -41 -139 -126 -178 -195 -19 -34 -33 -66 -29
-69 3 -4 6 -1 6 5 0 12 51 25 93 24 23 -1 36 10 73 61 168 232 225 284 361
333 l68 24 -50 0 c-27 0 -79 -9 -114 -20 -71 -23 -108 -20 -75 5 18 13 17 14
-16 14 -19 -1 -49 -4 -66 -9z"/>
<path d="M2560 5210 c0 -5 8 -10 18 -10 29 0 84 -39 150 -107 116 -121 194
-235 230 -338 26 -77 39 -244 22 -304 -15 -57 -6 -64 13 -9 l14 43 15 -35 c8
-19 20 -61 27 -93 8 -38 19 -61 33 -68 11 -6 17 -13 14 -16 -3 -3 -12 0 -21 7
-13 11 -15 8 -17 -16 0 -16 0 -37 0 -47 1 -11 -2 -15 -9 -11 -8 4 -9 -3 -5
-22 6 -28 -25 -178 -39 -192 -4 -4 -4 16 0 44 7 53 -7 84 -20 43 -5 -16 -13
-20 -31 -16 -13 2 -24 0 -24 -4 0 -5 -5 -9 -11 -9 -5 0 -8 4 -5 8 2 4 1 14 -5
22 -6 11 -9 6 -9 -17 0 -35 -15 -52 -24 -27 -3 9 -6 31 -6 50 0 26 -3 33 -12
27 -7 -4 -5 6 6 22 10 15 27 42 36 59 24 41 73 187 66 194 -3 3 -6 0 -6 -6 0
-6 -6 -17 -14 -25 -8 -8 -28 -50 -45 -94 -17 -43 -38 -88 -46 -99 -10 -12 -8
-4 5 26 28 66 73 228 67 242 -4 8 -6 7 -6 -4 -1 -10 -7 -15 -14 -12 -10 3 -19
-16 -33 -68 -13 -50 -24 -73 -34 -73 -12 0 -16 20 -21 100 -4 74 -6 86 -8 45
-6 -101 -10 -130 -31 -206 -23 -85 -57 -155 -95 -199 l-27 -30 21 32 c41 61
80 159 90 223 14 86 14 205 -1 255 l-11 40 -18 -92 c-19 -97 -54 -188 -102
-263 -31 -47 -31 -46 -2 37 17 47 17 54 3 83 l-15 31 -6 -51 c-5 -44 -42 -226
-53 -269 -3 -10 -8 -11 -18 -2 -11 10 -11 21 0 74 7 34 13 94 12 132 -1 39 -3
55 -5 37 -3 -20 -9 -32 -16 -29 -7 2 -16 -2 -22 -9 -5 -6 -20 -15 -32 -19 -22
-6 -23 -4 -24 62 -2 73 -4 66 -15 -42 -6 -65 -7 -68 -19 -45 -15 30 -97 236
-118 300 -21 63 -20 30 2 -61 10 -41 41 -122 68 -180 28 -57 46 -106 41 -107
-4 -2 -5 -9 -2 -15 3 -7 -27 22 -68 63 -68 69 -110 127 -180 248 -31 53 -34
52 -14 -6 18 -49 95 -165 161 -242 32 -37 26 -33 -19 15 -36 38 -66 67 -66 65
0 -6 26 -89 36 -115 4 -11 -10 1 -30 28 -20 26 -35 51 -32 55 2 4 -2 18 -10
32 -16 29 -19 19 -3 -13 10 -21 10 -21 -5 -3 -30 38 -74 172 -86 267 -11 83
-11 113 3 220 14 103 24 138 56 204 21 44 55 103 76 130 l38 50 -37 -35 c-20
-19 -49 -55 -63 -80 -54 -92 -174 -239 -264 -323 -83 -78 -122 -107 -104 -77
4 6 -19 -6 -51 -26 -66 -43 -197 -104 -281 -133 -35 -12 -48 -20 -34 -21 22 0
23 -3 17 -42 -3 -24 -9 -74 -13 -111 -3 -37 -9 -70 -14 -72 -9 -6 -39 51 -39
75 0 9 -11 26 -25 38 -26 23 -41 63 -31 87 3 10 19 15 42 15 21 0 34 3 31 7
-4 3 -20 6 -36 5 -23 0 -31 4 -33 21 -10 56 -30 -135 -25 -225 3 -54 2 -100
-2 -103 -12 -7 -21 19 -22 58 -1 43 -15 78 -23 57 -10 -26 -24 -134 -19 -147
3 -7 0 -13 -6 -13 -6 0 -11 19 -11 45 0 25 -4 45 -10 45 -5 0 -18 -31 -30 -69
-11 -38 -32 -96 -47 -128 -25 -56 -37 -133 -20 -133 4 0 4 -8 -2 -17 -7 -12
-5 -21 7 -30 15 -12 15 -12 -2 -6 -16 5 -18 3 -13 -11 4 -10 7 -25 8 -34 0
-11 2 -13 6 -4 3 9 12 5 29 -13 18 -20 24 -37 24 -71 0 -25 3 -43 8 -41 6 5
14 -55 16 -126 1 -23 3 -25 12 -12 6 8 10 27 7 43 -2 20 -1 22 5 9 7 -17 9
-17 19 5 6 13 16 50 23 81 16 80 28 79 18 -1 -7 -65 -32 -147 -49 -166 -16
-18 -9 -27 10 -16 22 11 25 8 36 -35 7 -28 9 -27 26 35 16 56 18 59 13 20 -3
-25 -8 -76 -10 -115 -4 -62 -3 -68 9 -51 13 18 15 18 30 -14 9 -18 14 -36 11
-41 -3 -5 -1 -9 5 -9 6 0 8 -8 4 -17 -4 -14 -3 -15 6 -7 9 8 9 22 2 55 -6 24
-10 71 -9 104 l1 60 7 -55 c4 -30 15 -93 23 -140 9 -47 12 -87 9 -90 -4 -3
-20 -23 -36 -45 l-29 -40 36 34 c33 31 37 33 37 14 0 -11 -6 -26 -14 -32 -18
-15 -27 -63 -15 -77 6 -7 6 -22 -1 -38 -5 -15 -10 -49 -10 -76 0 -27 -3 -55
-6 -64 -12 -31 -24 -15 -25 32 -1 46 -1 46 -9 12 -4 -19 -11 -43 -15 -52 -5
-13 -1 -19 19 -24 13 -3 30 -3 35 1 6 3 11 1 11 -4 0 -6 -7 -11 -15 -11 -9 0
-18 -12 -21 -30 -8 -35 -21 -39 -27 -7 -3 16 -5 14 -6 -10 0 -17 -6 -35 -12
-38 -6 -4 -8 -13 -5 -21 3 -7 -3 -18 -12 -23 -16 -10 -16 -10 0 -11 9 0 18 6
21 13 2 6 8 8 13 4 5 -5 -4 -19 -21 -33 -26 -21 -27 -24 -10 -24 28 0 48 45
32 71 -17 27 2 43 36 30 l25 -10 -26 -53 c-15 -29 -30 -54 -34 -56 -4 -2 -3
-13 1 -25 5 -12 9 -72 10 -133 2 -88 -1 -113 -13 -123 -32 -26 -38 -3 -31 110
4 60 4 109 0 109 -5 0 -23 -11 -40 -24 -18 -14 -61 -39 -96 -57 -71 -36 -198
-125 -334 -236 -115 -93 -256 -193 -274 -193 -7 0 -31 -10 -52 -22 l-39 -22 0
-221 c0 -191 2 -224 17 -245 16 -24 16 -24 0 -11 -30 24 -21 -44 11 -92 54
-80 48 -80 -12 -2 -14 18 -15 -37 -16 -567 l0 -588 120 0 120 0 -4 60 c-3 51
-2 59 10 49 8 -6 14 -26 14 -44 0 -66 -3 -65 166 -65 l154 0 0 24 c0 13 6 28
13 34 9 8 12 3 12 -21 0 -28 4 -32 28 -35 24 -3 28 0 23 15 -3 10 -8 30 -11
45 -7 27 -7 27 27 16 18 -6 44 -15 58 -20 49 -20 185 -22 239 -4 63 20 61 20
62 -6 1 -21 2 -20 11 5 8 22 16 27 42 27 18 0 56 7 85 16 29 8 55 13 58 11 2
-3 5 -28 6 -56 2 -39 6 -51 18 -51 14 0 15 7 8 43 -20 99 -29 196 -38 417 -19
442 -19 470 -6 470 10 0 13 -51 14 -221 2 -264 16 -495 36 -604 8 -44 14 -86
15 -92 0 -10 71 -13 320 -13 l320 0 0 135 c0 101 -3 135 -12 135 -9 0 -8 4 2
10 8 5 11 10 5 11 -5 0 -32 3 -60 5 -69 6 -75 9 -75 42 0 26 4 30 38 36 20 3
52 6 70 6 l34 0 -4 50 c-3 55 2 60 57 60 32 0 33 -1 37 -50 3 -28 8 -53 11
-56 3 -3 33 -8 66 -11 l61 -6 0 -33 0 -34 -69 0 c-39 0 -72 -3 -74 -7 -3 -5
-2 -72 1 -150 l5 -143 288 0 288 0 -11 33 c-18 57 -21 360 -4 497 l14 125 -6
-120 c-11 -190 -7 -445 6 -492 l13 -43 73 0 74 0 -19 50 -19 50 34 0 c82 0
412 116 500 175 l33 22 2 -81 c0 -44 3 -88 6 -97 9 -27 -47 -69 -140 -106 -24
-9 16 -11 210 -10 l240 2 3 50 c2 31 16 78 38 123 l35 74 -1 210 c-1 116 -5
221 -10 234 -6 15 -6 24 0 24 6 0 10 211 10 584 l0 584 -50 18 c-34 12 -115
70 -253 178 -255 203 -354 267 -399 260 -32 -6 -34 -4 -60 50 -33 67 -34 76
-8 76 15 0 20 7 20 24 0 24 -23 56 -41 56 -5 0 -9 5 -9 10 0 7 8 6 23 -1 19
-10 20 -10 11 2 -6 8 -13 20 -16 28 -3 10 -11 7 -30 -12 -15 -15 -33 -24 -41
-22 -25 10 -91 97 -78 104 7 5 -1 20 -25 44 -33 33 -36 40 -28 68 l9 31 47
-66 c27 -36 53 -66 58 -66 7 0 7 7 0 21 -16 29 -17 106 -2 121 17 17 28 4 58
-68 l24 -59 -5 45 -5 45 21 -40 c18 -36 20 -37 14 -10 -3 17 -8 38 -12 49 -3
12 -1 16 6 12 6 -4 11 0 11 11 0 15 4 14 21 -7 20 -25 20 -24 -1 20 l-21 45
26 -30 26 -30 -11 28 c-11 31 -14 207 -4 245 l7 23 30 -28 c25 -23 29 -24 23
-8 -11 30 -20 121 -11 113 14 -13 51 70 69 154 5 22 3 26 -9 22 -8 -4 -15 -1
-15 5 0 6 3 10 8 10 30 -5 35 2 28 44 -3 23 -9 53 -12 66 -5 16 -3 22 3 18 17
-11 36 49 29 92 -3 21 -6 96 -7 165 -1 178 -25 179 -32 1 l-2 -70 -13 44 c-25
82 -32 96 -41 82 -7 -11 -11 -9 -20 8 -7 12 -16 19 -22 16 -5 -4 -9 1 -9 9 0
8 -9 17 -19 21 -11 3 -23 16 -26 28 -18 63 -18 63 21 26 66 -61 133 -97 87
-46 -23 25 -83 113 -83 121 0 3 30 -15 66 -40 l65 -45 -65 86 c-75 98 -105
149 -59 100 15 -17 38 -44 51 -60 15 -20 19 -22 12 -7 -6 12 -7 22 -3 22 4 0
-3 9 -15 21 -12 11 -19 25 -16 31 4 7 2 8 -4 4 -8 -5 -12 0 -12 13 0 12 -4 21
-10 21 -5 0 -6 7 -3 17 4 10 2 14 -4 10 -13 -8 -53 20 -53 38 0 7 -4 15 -9 17
-5 2 -30 46 -57 98 -26 52 -58 112 -71 133 -13 20 -20 37 -17 37 4 0 0 8 -8
18 -23 27 -31 55 -14 49 20 -8 -17 59 -47 84 -20 18 -21 19 -2 12 11 -3 42
-21 68 -40 27 -19 51 -32 54 -30 2 3 -12 23 -31 45 -20 22 -36 44 -36 50 0 5
24 12 53 14 48 4 56 1 104 -33 28 -21 66 -59 84 -84 33 -46 47 -59 30 -27 -26
49 -172 199 -247 253 -46 34 -84 63 -84 65 0 2 35 2 78 -1 l77 -5 -75 18 c-77
19 -149 57 -150 80 0 6 -4 12 -8 12 -5 0 -17 7 -28 15 -20 17 -19 17 76 -2 14
-2 2 7 -27 20 -43 22 -66 25 -142 25 -51 0 -88 -4 -85 -9 3 -5 10 -9 15 -9 5
0 33 -16 62 -35 63 -43 58 -44 -24 -6 -35 17 -77 33 -94 36 l-30 7 25 -21 c14
-11 35 -21 47 -21 26 0 42 -20 16 -20 -15 -1 -15 -3 6 -21 34 -28 21 -33 -40
-13 -57 19 -166 89 -161 105 1 5 -18 9 -43 9 -25 0 -45 -4 -45 -10z m484 -365
c69 -93 126 -186 160 -263 33 -76 155 -289 202 -355 28 -39 30 -45 12 -33 -33
22 -131 135 -145 167 -11 26 -64 73 -78 70 -7 -3 -27 19 -91 99 -71 90 -116
153 -105 145 14 -8 14 -9 -11 60 -11 33 -22 81 -23 108 -2 42 -1 46 14 35 8
-7 0 7 -19 32 -18 25 -38 52 -44 60 -6 8 9 -1 32 -20 24 -19 67 -66 96 -105z
m-979 -148 c-19 -48 -35 -89 -35 -93 0 -3 9 -2 20 1 15 5 20 2 21 -12 3 -42 5
-83 8 -158 2 -55 5 -74 11 -60 5 11 9 16 9 10 1 -5 4 -21 8 -34 4 -16 2 -22
-4 -18 -6 4 -14 -4 -17 -18 -4 -16 -11 -23 -18 -19 -8 5 -9 2 -5 -10 4 -10 7
-25 7 -33 0 -14 2 -14 18 0 10 10 24 17 30 17 18 0 93 -170 96 -218 4 -58 -20
-72 -62 -37 -21 18 -32 21 -35 13 -5 -16 13 -84 42 -157 11 -30 19 -56 17 -58
-7 -7 -73 171 -94 252 -12 44 -26 112 -33 150 -14 86 -28 115 -30 65 -6 -128
-15 -167 -40 -181 -23 -12 -54 -5 -44 10 3 5 1 12 -3 15 -12 7 -23 -20 -57
-129 -25 -83 -93 -231 -102 -222 -2 2 15 42 37 88 48 101 93 274 110 424 8 61
17 114 22 120 4 5 8 -1 8 -15 0 -43 7 -16 15 55 l7 70 -42 -64 c-112 -173
-248 -283 -419 -342 -60 -21 -81 -24 -81 -10 0 5 20 12 44 15 24 4 50 14 58
23 9 12 9 15 1 9 -31 -18 -9 17 32 51 25 21 53 48 61 61 15 22 14 23 -5 13
-11 -6 -24 -10 -28 -9 -4 1 -27 -17 -51 -40 -24 -23 -47 -42 -52 -42 -12 0
-12 198 0 220 5 9 24 23 42 30 77 29 127 55 183 94 83 58 93 63 70 36 l-20
-23 23 12 c19 10 22 9 22 -8 0 -11 -3 -21 -7 -23 -5 -1 -26 -32 -47 -68 -49
-81 -48 -80 -42 -80 7 0 206 250 206 259 0 4 10 13 23 20 12 6 32 27 45 46 28
44 44 46 31 3 -11 -40 -11 -38 0 -38 5 0 24 29 42 64 19 36 35 64 36 62 2 -1
-13 -41 -32 -89z m1018 -203 c26 -41 47 -82 47 -90 0 -23 85 -152 133 -203 30
-31 35 -40 18 -31 -37 19 -116 70 -108 70 4 0 -18 30 -48 68 -30 37 -62 83
-71 102 -9 19 -21 46 -28 60 -11 26 -10 100 2 99 4 0 28 -34 55 -75z m71 -255
c-2 -4 10 -18 27 -31 l31 -23 -5 -123 c-3 -68 -7 -126 -11 -129 -3 -3 -12 -3
-19 0 -12 4 -13 13 -4 47 8 30 8 43 0 48 -15 9 -43 128 -47 202 -1 8 -5 21 -9
28 -7 10 -3 10 17 1 14 -7 23 -16 20 -20z m-483 -477 c-6 -2 -8 -14 -5 -26 3
-13 -2 -41 -11 -62 -9 -21 -18 -48 -21 -58 -3 -18 -2 -17 17 2 13 14 32 22 53
22 18 0 48 3 66 7 22 4 31 3 27 -4 -4 -6 -34 -13 -67 -15 -39 -3 -65 -10 -73
-20 -6 -9 -31 -28 -54 -42 -24 -14 -43 -28 -43 -30 0 -2 30 7 67 21 36 13 69
20 72 15 9 -13 51 -9 51 5 0 7 11 13 25 13 18 0 23 -4 19 -15 -6 -15 17 -20
74 -15 24 2 30 -18 10 -38 -16 -16 -130 -16 -146 0 -9 9 -15 10 -20 2 -4 -6
-14 -14 -22 -17 -8 -3 47 -6 123 -6 l137 -1 2 -37 c1 -21 1 -56 1 -78 l-2 -40
14 35 c7 19 14 49 15 65 1 28 20 65 34 65 3 0 6 -42 7 -92 0 -74 3 -88 11 -70
6 12 15 22 21 22 17 0 -2 -91 -33 -153 -23 -47 -26 -58 -12 -52 9 4 22 8 28 9
6 1 22 13 35 27 13 14 19 18 14 9 -6 -8 -19 -31 -29 -50 -10 -19 -32 -52 -48
-72 -32 -42 -27 -49 12 -17 14 11 39 29 55 41 l30 22 -18 -21 c-11 -12 -16
-26 -13 -31 8 -13 -46 -123 -100 -202 -82 -122 -420 -436 -519 -481 -49 -23
-126 -24 -168 -4 -47 22 -178 123 -289 221 -101 89 -196 203 -222 265 -8 20
-33 48 -56 64 -23 16 -57 47 -76 69 -30 35 -34 37 -28 16 3 -14 13 -32 20 -41
8 -8 14 -22 14 -29 0 -7 3 -10 6 -7 9 9 46 -12 39 -23 -3 -5 3 -11 12 -14 13
-4 26 -34 45 -98 23 -82 25 -101 18 -165 -8 -63 -31 -133 -46 -133 -2 0 1 10
7 22 14 26 15 166 1 180 -6 6 -15 4 -23 -4 -8 -7 -21 -14 -29 -16 -8 -2 -39
-14 -69 -28 -30 -13 -56 -23 -58 -21 -5 6 76 89 116 119 34 26 34 27 18 52
-24 36 -34 33 -42 -12 -12 -73 -25 -70 -25 6 0 75 -8 87 -34 50 -9 -12 -16
-18 -16 -12 0 6 9 19 20 29 11 10 20 23 20 29 0 6 -5 5 -12 -2 -19 -19 -23
-14 -22 31 1 77 4 98 13 93 17 -11 20 21 4 43 -8 12 -13 24 -11 27 3 2 18 -14
33 -36 28 -41 101 -106 167 -150 20 -13 35 -27 32 -31 -4 -7 69 -39 89 -39 6
0 -5 11 -26 24 -45 27 -82 61 -108 97 l-19 26 38 -13 c52 -18 73 -18 47 2 -46
34 -87 79 -106 115 -22 45 -18 47 30 18 69 -42 82 -40 38 4 -49 49 -117 162
-117 192 1 16 7 13 36 -20 20 -22 45 -53 56 -70 11 -16 17 -21 13 -10 -4 11
-9 36 -12 55 l-5 35 21 -33 c12 -18 21 -36 21 -40 0 -5 7 -17 15 -28 13 -17
14 -16 4 14 -17 51 -4 48 16 -3 9 -26 19 -44 21 -42 2 2 -3 20 -11 40 -23 54
-17 58 10 7 13 -25 25 -38 26 -30 0 8 5 4 10 -10 5 -16 6 -4 2 35 -5 56 -4 59
11 40 l15 -20 1 20 c1 18 2 18 10 -2 5 -13 14 -23 19 -23 11 0 33 -59 26 -70
-3 -4 3 -14 12 -21 14 -12 15 -11 10 6 -3 11 -8 31 -11 45 -2 14 -7 37 -11 52
-5 20 -1 35 14 57 12 16 32 49 46 73 l25 43 0 -32 c0 -18 4 -33 8 -33 13 0 7
-52 -9 -88 -9 -18 -18 -29 -22 -25 -4 3 -7 4 -7 0 0 -3 4 -8 9 -12 5 -3 32 29
60 72 l51 77 1 -54 c0 -50 25 -155 28 -120 1 12 3 13 10 1 6 -9 11 0 16 30 6
36 9 40 16 24 5 -13 8 1 8 43 1 48 5 66 21 82 26 26 34 25 48 -7 11 -26 11
-26 6 -3 -4 19 0 17 16 -12 11 -20 24 -39 29 -42 19 -12 24 54 6 84 -5 9 0 8
13 -4 12 -10 19 -22 16 -27 -5 -8 72 -69 88 -69 4 0 -5 19 -22 42 -35 47 -38
63 -11 48 11 -5 23 -10 28 -10 4 1 -4 7 -19 15 -15 9 -31 30 -38 51 -11 32
-10 38 11 60 12 13 26 24 31 24 5 0 26 12 46 26 20 15 29 24 20 21 -13 -5 -15
-2 -11 11 12 33 45 72 55 66 7 -4 8 -2 4 4 -8 14 48 107 77 127 20 14 22 14
26 -2 2 -9 -2 -19 -8 -21z m-1125 -672 c23 -89 14 -253 -15 -284 -11 -12 -20
-25 -20 -31 -1 -5 -6 -10 -11 -10 -12 0 -30 -26 -25 -35 2 -4 -2 -7 -10 -7
-16 0 -13 6 28 62 l29 40 -42 -44 -43 -43 -23 28 c-13 17 -23 43 -24 60 0 46
36 155 65 199 23 34 25 41 14 74 -6 20 -16 42 -22 49 -5 7 -7 15 -5 18 3 3 16
-10 29 -28 18 -24 25 -50 28 -102 2 -49 0 -67 -8 -62 -7 5 -11 -3 -11 -23 0
-16 -5 -42 -10 -57 -16 -42 -7 -38 34 16 l37 49 -16 82 c-9 45 -23 100 -31
122 -8 22 -14 51 -13 66 1 22 4 18 24 -24 14 -28 32 -80 41 -115z m1434 -311
c-16 -42 -17 -50 -4 -34 15 19 16 17 10 -35 l-7 -55 31 45 30 45 0 -111 c0
-111 0 -112 -25 -118 -14 -4 -35 -1 -48 5 -37 19 -6 -6 73 -58 93 -61 100 -65
100 -59 0 3 -27 24 -60 46 -97 66 -71 76 55 20 33 -15 114 -46 181 -70 99 -35
124 -48 142 -74 12 -17 41 -51 64 -76 76 -81 238 -337 238 -377 0 -5 -48 -5
-107 -1 -60 5 -118 6 -130 3 -15 -3 -23 -1 -23 7 0 7 -23 58 -51 113 -55 110
-57 97 -3 -21 19 -41 34 -78 34 -82 0 -4 -36 -7 -79 -8 -57 0 -87 -6 -105 -18
-25 -16 -27 -16 -33 1 -24 67 -98 253 -109 276 -8 15 -57 61 -110 103 -92 73
-134 122 -149 174 -7 21 -2 19 40 -18 26 -23 52 -42 58 -42 5 0 -8 14 -29 30
-80 62 -108 125 -66 149 9 6 12 11 6 11 -43 1 -43 -100 0 -177 l26 -45 -40 7
c-38 6 -43 4 -80 -33 -26 -25 -40 -49 -40 -65 0 -43 -10 -57 -44 -58 l-31 -1
31 -7 c35 -9 185 -92 291 -163 73 -48 89 -69 147 -183 22 -45 23 -50 8 -53
-48 -9 -87 -27 -118 -54 -19 -17 -36 -29 -38 -27 -2 2 -16 28 -30 57 -26 51
-55 83 -194 216 -35 33 -61 65 -58 72 3 7 -4 24 -15 37 -10 14 -24 36 -29 49
-9 20 -10 18 -5 -12 3 -19 18 -55 33 -80 l28 -46 -8 -327 c-13 -456 1 -568 73
-597 25 -11 37 -10 70 3 37 14 39 14 28 0 -26 -31 -156 -131 -256 -198 l-103
-68 -72 0 c-43 0 -54 -2 -28 -4 67 -6 79 -11 57 -28 -26 -19 -130 -29 -156
-16 -30 16 -26 39 7 44 15 2 10 3 -11 2 -31 -3 -51 5 -110 45 -40 27 -103 75
-142 107 l-70 59 1 75 c1 77 41 213 105 361 28 65 41 122 14 63 l-13 -30 -1
33 c-1 38 -17 72 -33 72 -6 0 -4 -8 5 -18 27 -30 20 -92 -23 -214 -35 -99 -64
-148 -89 -148 -3 0 -5 75 -3 166 l3 166 27 23 c37 32 79 39 111 19 l26 -17
-19 21 c-25 29 -65 28 -109 -2 l-36 -25 -5 32 c-3 18 -8 113 -11 212 -8 256
-23 423 -42 463 -18 37 -53 65 -86 67 -30 2 -36 39 -41 222 -3 84 -7 163 -11
175 -3 13 8 -6 25 -41 16 -35 27 -68 23 -74 -3 -6 -1 -7 5 -3 6 4 16 -4 23
-16 12 -22 11 -22 -6 -8 -17 14 -18 14 -6 -8 7 -12 17 -20 23 -16 6 4 8 3 5
-3 -4 -6 5 -21 18 -33 30 -28 31 -23 6 27 -11 21 -22 49 -26 63 -8 24 -7 23
29 -8 45 -39 60 -43 18 -4 -16 15 -44 56 -62 91 l-32 63 74 -70 c156 -150 352
-301 401 -309 25 -4 34 -10 30 -19 -3 -8 0 -14 6 -14 6 0 11 5 11 11 0 5 4 7
10 4 5 -3 18 -1 29 5 11 5 35 12 53 14 18 2 36 4 41 5 23 3 329 301 430 419
64 74 72 81 75 60 2 -14 -6 -49 -18 -79z m-1391 -190 c38 -13 46 -38 38 -119
-5 -61 -48 -170 -66 -170 -6 0 -11 5 -11 10 0 14 -13 12 -36 -6 -19 -15 -19
-15 0 -6 16 8 24 5 38 -13 31 -40 33 -78 5 -138 -20 -43 -38 -64 -90 -101 -43
-31 -69 -57 -76 -78 -14 -40 -8 -46 13 -13 21 31 95 87 107 79 20 -12 7 -65
-32 -125 -23 -35 -34 -58 -26 -50 9 7 30 33 46 58 29 43 30 44 36 20 20 -78
-102 -261 -248 -371 -21 -16 -44 -44 -52 -62 -24 -58 -101 -87 -177 -66 l-35
10 -7 -52 c-3 -28 -6 -86 -6 -128 0 -53 -8 -102 -24 -155 -13 -43 -26 -93 -30
-110 -7 -42 9 -127 41 -217 24 -66 65 -257 58 -264 -9 -9 -30 52 -67 191 -68
256 -66 240 -28 369 32 108 34 121 34 278 l1 166 52 89 c56 98 107 209 149
325 34 97 67 161 102 202 16 18 34 53 41 78 14 47 34 80 87 143 18 21 49 78
69 125 33 76 52 112 60 112 1 0 16 -5 34 -11z m63 -708 c7 25 36 36 40 15 1
-6 4 18 7 54 5 52 8 32 14 -105 4 -93 14 -248 23 -344 8 -96 12 -176 9 -179
-3 -3 -5 1 -5 9 -1 60 -31 284 -39 292 -8 8 -11 1 -11 -21 0 -52 -17 -36 -28
26 l-9 57 -2 -64 c0 -35 -3 -62 -6 -59 -3 3 -12 36 -20 74 -8 38 -13 52 -10
32 6 -60 -11 -44 -40 36 -23 62 -25 79 -16 111 5 20 9 78 8 129 -1 80 2 98 21
127 l22 34 1 -65 2 -65 11 75 11 75 5 -135 c3 -82 8 -125 12 -109z m1439 176
l2 -42 6 35 6 35 28 -37 c59 -77 101 -210 78 -246 -10 -16 -19 -6 -54 63 -14
28 -36 66 -49 86 -25 36 -49 167 -28 154 6 -3 11 -25 11 -48z m-1550 -400 c5
2 13 -7 19 -20 11 -21 10 -21 -4 -3 -18 23 -21 14 -5 -15 5 -11 14 -17 19 -14
5 3 12 0 16 -6 5 -8 3 -9 -6 -4 -8 5 -11 3 -8 -6 3 -8 10 -13 16 -12 10 2 62
-59 62 -74 0 -4 -12 9 -27 30 -34 48 -43 40 -9 -10 39 -57 31 -97 -14 -73 -16
9 -18 8 -14 -5 4 -8 16 -15 29 -15 28 0 35 -17 35 -78 0 -26 5 -54 10 -62 7
-10 9 12 6 70 -2 47 -2 69 0 50 5 -46 34 -219 41 -247 5 -23 5 -23 -31 -8 -19
8 -53 15 -75 15 -31 0 -41 4 -46 20 -8 24 1 40 21 40 8 0 14 7 14 15 0 8 -4
15 -10 15 -5 0 -10 7 -10 15 0 18 -16 48 -51 95 -33 43 -35 50 -54 179 -19
131 -19 126 8 139 18 8 25 7 41 -11 10 -12 22 -21 27 -20z m2259 -374 c-1 -24
-22 -155 -31 -196 -9 -39 -17 -50 -43 -61 -47 -20 -244 -65 -296 -68 l-45 -3
-3 123 -3 122 41 0 c25 0 40 -5 40 -12 1 -8 5 -7 13 4 11 14 113 48 145 48 6
0 13 -12 15 -27 4 -26 4 -26 6 4 1 29 5 33 42 43 22 6 47 14 56 17 14 6 15 -3
9 -68 -9 -86 -1 -88 14 -3 6 32 13 65 15 72 5 13 25 17 25 5z m-740 -175 c-5
-24 -12 -80 -16 -126 -4 -46 -13 -89 -20 -96 -7 -8 -10 -17 -6 -21 4 -5 -2 -5
-12 -1 -11 3 -40 0 -65 -8 -25 -9 -74 -22 -109 -30 l-63 -15 16 26 c26 39 9
39 -35 -1 -22 -20 -49 -36 -60 -36 -11 0 -20 2 -20 4 0 2 39 30 88 62 92 61
223 181 268 245 15 22 30 39 34 39 4 0 4 -19 0 -42z m-56 -301 c1 -34 -3 -51
-14 -57 -10 -6 -11 -9 -2 -10 6 0 12 -4 12 -9 0 -13 -70 -37 -160 -55 -93 -19
-308 -28 -317 -13 -4 6 -1 13 5 15 7 2 18 9 25 16 6 6 29 25 50 40 21 16 33
32 28 36 -6 3 33 13 87 23 53 9 133 27 177 41 44 13 86 23 94 22 9 -1 14 -17
15 -49z m-915 9 c71 -14 134 -33 153 -45 18 -12 45 -27 61 -33 36 -16 34 -26
-3 -20 -17 2 -30 0 -30 -6 0 -6 -8 -13 -17 -15 -10 -3 -3 -5 15 -6 39 -1 43
-21 4 -21 -39 0 -184 17 -265 31 -74 13 -97 29 -45 30 18 0 26 3 18 5 -8 3
-32 12 -52 21 l-37 16 20 39 c15 30 24 38 39 33 10 -3 73 -16 139 -29z"/>
<path d="M2112 5134 c-18 -7 -60 -40 -93 -73 -55 -55 -58 -61 -48 -85 10 -20
9 -30 -5 -50 -20 -31 -21 -42 -1 -26 10 9 15 9 15 1 0 -6 11 -11 25 -11 34 0
33 -29 -2 -72 l-27 -33 28 25 c63 55 208 253 201 272 -3 8 -15 18 -28 23 -12
6 -22 15 -22 22 0 20 -9 22 -43 7z"/>
<path d="M2587 5111 c13 -34 14 -46 5 -49 -29 -9 -33 -41 -13 -110 11 -37 27
-103 35 -147 11 -56 15 -67 13 -35 -2 42 0 45 21 44 13 0 27 -5 30 -11 4 -6
16 -13 27 -15 17 -3 20 2 17 32 -6 57 -93 260 -136 315 -13 17 -13 13 1 -24z"/>
<path d="M2368 5070 c-9 -14 -23 -38 -31 -55 l-15 -30 1 35 c2 35 -2 38 -35
25 -13 -5 -18 -2 -18 11 -1 15 -6 12 -29 -14 -30 -34 -72 -134 -92 -215 -13
-52 -6 -76 10 -34 13 33 28 41 39 21 10 -19 36 -10 26 9 -3 7 1 4 9 -6 11 -14
16 -15 20 -5 3 7 6 -7 6 -31 1 -58 9 -48 20 25 l9 59 1 -60 c1 -38 4 -55 10
-46 6 9 18 11 41 6 40 -9 49 3 51 65 1 45 1 45 11 -15 5 -36 17 -68 29 -80 19
-19 19 -19 20 60 l1 80 10 -50 c10 -52 28 -84 28 -49 0 14 2 16 9 6 4 -8 12
-13 17 -13 17 2 44 -29 45 -51 0 -13 4 -32 9 -43 6 -13 8 7 5 55 l-4 75 9 -60
c5 -33 13 -94 18 -135 9 -74 9 -75 11 -20 2 102 -49 400 -69 400 -4 0 -13 13
-19 29 -14 34 -82 66 -100 48 -8 -8 -11 -7 -11 2 0 7 -4 10 -9 7 -5 -4 -11 -1
-13 6 -3 8 -11 3 -20 -12z"/>
<path d="M2677 5056 c-16 -13 -15 -19 24 -112 22 -55 43 -107 46 -117 3 -10
11 -16 17 -14 6 3 21 -16 33 -42 l22 -46 0 43 c1 55 22 64 62 26 34 -33 36
-23 8 48 -34 86 -145 228 -179 228 -8 0 -23 -7 -33 -14z"/>
</g>
</svg>
